#Comment line ignore any data following # character 
#Hierarchical Translation and Rotation (.htr) file 
[Header]	
#Header keywords are followed by a single value 
FileType HTR		#Single word string
DataType HTRS		#Translation followed by rotation and scale data
FileVersion 1		#integer
NumSegments 84		#integer
NumFrames 2		#integer
DataFrameRate 30		#integer, data frame rate in this file
EulerRotationOrder ZYX
CalibrationUnits mm
RotationUnits Degrees
GlobalAxisofGravity Y
BoneLengthAxis Y
ScaleFactor 1.00
[SegmentNames&Hierarchy]
#CHILD	PARENT
MASTER GLOBAL
root MASTER
chest root
L_mid_tent01 root
R_mid_tent01 root
spine01 root
Bip01_Neck chest
L_humerus chest
R_humerus chest
weapon_bone chest
Bip01_Head Bip01_Neck
eye_left_bone Bip01_Head
eye_right_bone Bip01_Head
L_forearm L_humerus
L_front_hand L_forearm
L_weapon_bone L_forearm
L_front_hand01_01 L_front_hand
L_front_hand02_01 L_front_hand
L_front_hand03_01 L_front_hand
L_front_hand01_02 L_front_hand01_01
L_front_hand02_02 L_front_hand02_01
L_front_hand03_02 L_front_hand03_01
R_forearm R_humerus
R_front_hand R_forearm
R_weapon_bone R_forearm
R_front_hand01_01 R_front_hand
R_front_hand02_01 R_front_hand
R_front_hand03_01 R_front_hand
R_front_hand01_02 R_front_hand01_01
R_front_hand02_02 R_front_hand02_01
R_front_hand03_02 R_front_hand03_01
null_rope01_connect L_mid_tent01
Rope1_Seg01 null_rope01_connect
Rope1_Seg02 Rope1_Seg01
Rope1_Seg03 Rope1_Seg02
Rope1_Seg04 Rope1_Seg03
Rope1_Seg05 Rope1_Seg04
Rope1_Seg06 Rope1_Seg05
Rope1_Seg07 Rope1_Seg06
Rope1_Seg09 Rope1_Seg07
L_mid_hand01 Rope1_Seg09
L_mid_hand02 Rope1_Seg09
L_mid_hand03 Rope1_Seg09
null_rope02_connect R_mid_tent01
Rope2_Seg01 null_rope02_connect
Rope2_Seg02 Rope2_Seg01
Rope2_Seg03 Rope2_Seg02
Rope2_Seg04 Rope2_Seg03
Rope2_Seg05 Rope2_Seg04
Rope2_Seg06 Rope2_Seg05
Rope2_Seg07 Rope2_Seg06
Rope2_Seg09 Rope2_Seg07
R_mid_hand01 Rope2_Seg09
R_mid_hand02 Rope2_Seg09
R_mid_hand03 Rope2_Seg09
spine02 spine01
spine03 spine02
pelvis spine03
null_rope03_connect pelvis
null_rope04_connect pelvis
Rope3_Seg01 null_rope03_connect
Rope3_Seg02 Rope3_Seg01
Rope3_Seg03 Rope3_Seg02
Rope3_Seg04 Rope3_Seg03
Rope3_Seg05 Rope3_Seg04
Rope3_Seg06 Rope3_Seg05
Rope3_Seg07 Rope3_Seg06
Rope3_Seg08 Rope3_Seg07
Rope3_Seg09 Rope3_Seg08
R_rear_hand01 Rope3_Seg09
R_rear_hand02 Rope3_Seg09
R_rear_hand03 Rope3_Seg09
Rope4_Seg01 null_rope04_connect
Rope4_Seg02 Rope4_Seg01
Rope4_Seg03 Rope4_Seg02
Rope4_Seg04 Rope4_Seg03
Rope4_Seg05 Rope4_Seg04
Rope4_Seg06 Rope4_Seg05
Rope4_Seg07 Rope4_Seg06
Rope4_Seg08 Rope4_Seg07
Rope4_Seg09 Rope4_Seg08
L_rear_hand01 Rope4_Seg09
L_rear_hand02 Rope4_Seg09
L_rear_hand03 Rope4_Seg09
[BasePosition]
#SegmentName Tx, Ty, Tz, Rx, Ry, Rz, BoneLength
MASTER 0.000000 0.000000 0.000000 -90.000000 0.000000 0.000000 10.000000 
root 0.000000 0.000000 0.000000 0.000000 0.000000 0.000000 10.000000 
chest 0.000000 0.000000 0.000000 0.000000 0.000000 0.000000 10.000000 
L_mid_tent01 0.000000 0.000000 0.000000 0.000000 0.000000 0.000000 10.000000 
R_mid_tent01 0.000000 0.000000 0.000000 0.000000 0.000000 0.000000 10.000000 
spine01 0.000000 0.000000 0.000000 0.000000 0.000000 0.000000 10.000000 
Bip01_Neck 0.000000 0.000000 0.000000 0.000000 0.000000 0.000000 10.000000 
L_humerus 0.000000 0.000000 0.000000 0.000000 0.000000 0.000000 10.000000 
R_humerus 0.000000 0.000000 0.000000 0.000000 0.000000 0.000000 10.000000 
weapon_bone 0.000000 0.000000 0.000000 0.000000 0.000000 0.000000 10.000000 
Bip01_Head 0.000000 0.000000 0.000000 0.000000 0.000000 0.000000 10.000000 
eye_left_bone 0.000000 0.000000 0.000000 0.000000 0.000000 0.000000 10.000000 
eye_right_bone 0.000000 0.000000 0.000000 0.000000 0.000000 0.000000 10.000000 
L_forearm 0.000000 0.000000 0.000000 0.000000 0.000000 0.000000 10.000000 
L_front_hand 0.000000 0.000000 0.000000 0.000000 0.000000 0.000000 10.000000 
L_weapon_bone 0.000000 0.000000 0.000000 0.000000 0.000000 0.000000 10.000000 
L_front_hand01_01 0.000000 0.000000 0.000000 0.000000 0.000000 0.000000 10.000000 
L_front_hand02_01 0.000000 0.000000 0.000000 0.000000 0.000000 0.000000 10.000000 
L_front_hand03_01 0.000000 0.000000 0.000000 0.000000 0.000000 0.000000 10.000000 
L_front_hand01_02 0.000000 0.000000 0.000000 0.000000 0.000000 0.000000 10.000000 
L_front_hand02_02 0.000000 0.000000 0.000000 0.000000 0.000000 0.000000 10.000000 
L_front_hand03_02 0.000000 0.000000 0.000000 0.000000 0.000000 0.000000 10.000000 
R_forearm 0.000000 0.000000 0.000000 0.000000 0.000000 0.000000 10.000000 
R_front_hand 0.000000 0.000000 0.000000 0.000000 0.000000 0.000000 10.000000 
R_weapon_bone 0.000000 0.000000 0.000000 0.000000 0.000000 0.000000 10.000000 
R_front_hand01_01 0.000000 0.000000 0.000000 0.000000 0.000000 0.000000 10.000000 
R_front_hand02_01 0.000000 0.000000 0.000000 0.000000 0.000000 0.000000 10.000000 
R_front_hand03_01 0.000000 0.000000 0.000000 0.000000 0.000000 0.000000 10.000000 
R_front_hand01_02 0.000000 0.000000 0.000000 0.000000 0.000000 0.000000 10.000000 
R_front_hand02_02 0.000000 0.000000 0.000000 0.000000 0.000000 0.000000 10.000000 
R_front_hand03_02 0.000000 0.000000 0.000000 0.000000 0.000000 0.000000 10.000000 
null_rope01_connect 0.000000 0.000000 0.000000 0.000000 0.000000 0.000000 10.000000 
Rope1_Seg01 0.000000 0.000000 0.000000 0.000000 0.000000 0.000000 10.000000 
Rope1_Seg02 0.000000 0.000000 0.000000 0.000000 0.000000 0.000000 10.000000 
Rope1_Seg03 0.000000 0.000000 0.000000 0.000000 0.000000 0.000000 10.000000 
Rope1_Seg04 0.000000 0.000000 0.000000 0.000000 0.000000 0.000000 10.000000 
Rope1_Seg05 0.000000 0.000000 0.000000 0.000000 0.000000 0.000000 10.000000 
Rope1_Seg06 0.000000 0.000000 0.000000 0.000000 0.000000 0.000000 10.000000 
Rope1_Seg07 0.000000 0.000000 0.000000 0.000000 0.000000 0.000000 10.000000 
Rope1_Seg09 0.000000 0.000000 0.000000 0.000000 0.000000 0.000000 10.000000 
L_mid_hand01 0.000000 0.000000 0.000000 0.000000 0.000000 0.000000 10.000000 
L_mid_hand02 0.000000 0.000000 0.000000 0.000000 0.000000 0.000000 10.000000 
L_mid_hand03 0.000000 0.000000 0.000000 0.000000 0.000000 0.000000 10.000000 
null_rope02_connect 0.000000 0.000000 0.000000 0.000000 0.000000 0.000000 10.000000 
Rope2_Seg01 0.000000 0.000000 0.000000 0.000000 0.000000 0.000000 10.000000 
Rope2_Seg02 0.000000 0.000000 0.000000 0.000000 0.000000 0.000000 10.000000 
Rope2_Seg03 0.000000 0.000000 0.000000 0.000000 0.000000 0.000000 10.000000 
Rope2_Seg04 0.000000 0.000000 0.000000 0.000000 0.000000 0.000000 10.000000 
Rope2_Seg05 0.000000 0.000000 0.000000 0.000000 0.000000 0.000000 10.000000 
Rope2_Seg06 0.000000 0.000000 0.000000 0.000000 0.000000 0.000000 10.000000 
Rope2_Seg07 0.000000 0.000000 0.000000 0.000000 0.000000 0.000000 10.000000 
Rope2_Seg09 0.000000 0.000000 0.000000 0.000000 0.000000 0.000000 10.000000 
R_mid_hand01 0.000000 0.000000 0.000000 0.000000 0.000000 0.000000 10.000000 
R_mid_hand02 0.000000 0.000000 0.000000 0.000000 0.000000 0.000000 10.000000 
R_mid_hand03 0.000000 0.000000 0.000000 0.000000 0.000000 0.000000 10.000000 
spine02 0.000000 0.000000 0.000000 0.000000 0.000000 0.000000 10.000000 
spine03 0.000000 0.000000 0.000000 0.000000 0.000000 0.000000 10.000000 
pelvis 0.000000 0.000000 0.000000 0.000000 0.000000 0.000000 10.000000 
null_rope03_connect 0.000000 0.000000 0.000000 0.000000 0.000000 0.000000 10.000000 
null_rope04_connect 0.000000 0.000000 0.000000 0.000000 0.000000 0.000000 10.000000 
Rope3_Seg01 0.000000 0.000000 0.000000 0.000000 0.000000 0.000000 10.000000 
Rope3_Seg02 0.000000 0.000000 0.000000 0.000000 0.000000 0.000000 10.000000 
Rope3_Seg03 0.000000 0.000000 0.000000 0.000000 0.000000 0.000000 10.000000 
Rope3_Seg04 0.000000 0.000000 0.000000 0.000000 0.000000 0.000000 10.000000 
Rope3_Seg05 0.000000 0.000000 0.000000 0.000000 0.000000 0.000000 10.000000 
Rope3_Seg06 0.000000 0.000000 0.000000 0.000000 0.000000 0.000000 10.000000 
Rope3_Seg07 0.000000 0.000000 0.000000 0.000000 0.000000 0.000000 10.000000 
Rope3_Seg08 0.000000 0.000000 0.000000 0.000000 0.000000 0.000000 10.000000 
Rope3_Seg09 0.000000 0.000000 0.000000 0.000000 0.000000 0.000000 10.000000 
R_rear_hand01 0.000000 0.000000 0.000000 0.000000 0.000000 0.000000 10.000000 
R_rear_hand02 0.000000 0.000000 0.000000 0.000000 0.000000 0.000000 10.000000 
R_rear_hand03 0.000000 0.000000 0.000000 0.000000 0.000000 0.000000 10.000000 
Rope4_Seg01 0.000000 0.000000 0.000000 0.000000 0.000000 0.000000 10.000000 
Rope4_Seg02 0.000000 0.000000 0.000000 0.000000 0.000000 0.000000 10.000000 
Rope4_Seg03 0.000000 0.000000 0.000000 0.000000 0.000000 0.000000 10.000000 
Rope4_Seg04 0.000000 0.000000 0.000000 0.000000 0.000000 0.000000 10.000000 
Rope4_Seg05 0.000000 0.000000 0.000000 0.000000 0.000000 0.000000 10.000000 
Rope4_Seg06 0.000000 0.000000 0.000000 0.000000 0.000000 0.000000 10.000000 
Rope4_Seg07 0.000000 0.000000 0.000000 0.000000 0.000000 0.000000 10.000000 
Rope4_Seg08 0.000000 0.000000 0.000000 0.000000 0.000000 0.000000 10.000000 
Rope4_Seg09 0.000000 0.000000 0.000000 0.000000 0.000000 0.000000 10.000000 
L_rear_hand01 0.000000 0.000000 0.000000 0.000000 0.000000 0.000000 10.000000 
L_rear_hand02 0.000000 0.000000 0.000000 0.000000 0.000000 0.000000 10.000000 
L_rear_hand03 0.000000 0.000000 0.000000 0.000000 0.000000 0.000000 10.000000 
#Beginning of Data. Separated by tabs
#Fr	Tx	Ty	Tz	Rx	Ry	Rz	SF
[MASTER]
25 -0.000779 5180.431152 1609.774292 0.001660 0.001660 0.001660 5424.780273
26 -0.000797 5297.980957 1645.255371 0.001660 0.001660 0.001660 5547.563965
[root]
25 -64.672974 -126.000984 562.764343 -94.271820 -12.331066 -90.668091 580.312500
26 -104.534943 -128.775482 572.900757 -91.293228 -10.967967 -90.656128 596.427673
[chest]
25 -84.512650 -34.090519 0.000000 -9.596635 -0.838653 149.624832 91.129311
26 -84.512650 -34.090519 0.000000 -9.788148 -0.484545 152.933395 91.129311
[L_mid_tent01]
25 27.299135 22.179369 -249.918701 -0.470849 34.443802 67.993492 252.381714
26 27.299139 22.179379 -249.918701 -0.324251 35.533184 68.075333 252.381714
[R_mid_tent01]
25 23.228794 24.509907 226.238495 162.323685 -25.615253 81.415504 228.744751
26 23.228794 24.509907 226.238495 161.531906 -25.805033 83.464493 228.744751
[spine01]
25 -0.361383 -0.195265 0.000000 0.001954 0.001301 22.692142 0.410763
26 -0.361383 -0.195265 0.000000 0.001953 0.001302 22.646746 0.410763
[Bip01_Neck]
25 165.484543 71.581718 0.000119 176.643677 -1.657967 43.431911 180.302734
26 165.484543 71.581718 0.000119 176.643677 -1.657967 43.431911 180.302734
[L_humerus]
25 -13.983130 -135.272980 -120.471481 170.863892 31.084072 -94.328011 181.680161
26 -13.983130 -135.272980 -120.471481 171.349457 25.309835 -93.301865 181.680161
[R_humerus]
25 -13.983309 -135.273102 125.287651 -176.231934 -37.613373 -87.846329 184.909012
26 -13.983309 -135.273102 125.287651 -176.291336 -36.486137 -87.751221 184.909012
[weapon_bone]
25 235.964890 -300.705902 0.000000 0.000000 -89.951546 -128.212341 382.234833
26 235.964890 -300.705902 0.000000 0.000000 -89.951546 -128.212341 382.234833
[Bip01_Head]
25 213.331909 186.028046 7.742983 5.200446 6.151311 -43.834991 283.155243
26 213.336777 186.013794 7.926790 5.200446 6.151311 -43.834991 283.154633
[eye_left_bone]
25 -24.626970 125.451866 -64.772606 0.000000 -90.000000 -99.840431 143.318359
26 -24.626970 125.451866 -64.772606 0.000000 -90.000000 -99.840431 143.318359
[eye_right_bone]
25 -24.626970 125.451866 64.327362 0.000000 -89.965736 80.156380 143.117676
26 -24.626970 125.451866 64.327362 0.000000 -89.965736 80.156380 143.117676
[L_forearm]
25 322.776093 0.000000 -0.000119 0.000228 -0.002336 -101.142654 322.776093
26 322.776093 0.000000 -0.000119 0.000238 -0.002335 -101.621193 322.776093
[L_front_hand]
25 241.149185 -0.042021 -3.300071 -177.007339 -1.838204 -27.421036 241.171753
26 241.149185 -0.042021 -3.300071 -177.746445 -1.834848 -27.425339 241.171753
[L_weapon_bone]
25 156.183838 0.000000 0.000000 0.000014 0.000007 0.000001 156.183838
26 156.183838 0.000000 0.000000 0.000014 0.000007 0.000001 156.183838
[L_front_hand01_01]
25 86.095154 20.947098 -0.655860 -0.351864 -0.488251 73.756912 88.609184
26 86.095154 20.947098 -0.655860 -0.359433 -0.482613 74.612556 88.609184
[L_front_hand02_01]
25 86.935165 -11.437475 24.513514 151.937775 -59.151119 -58.507748 91.046425
26 86.935165 -11.437475 24.513514 153.214294 -59.547066 -59.995945 91.046425
[L_front_hand03_01]
25 86.637497 -14.123976 -20.424902 -151.626480 57.374607 -59.999702 90.126129
26 86.637497 -14.123976 -20.424902 -152.821930 57.770218 -61.413536 90.126129
[L_front_hand01_02]
25 71.020905 -0.000179 0.000030 0.000334 -0.002323 -106.342621 71.020905
26 71.020905 -0.000179 0.000030 0.000334 -0.002323 -106.379532 71.020905
[L_front_hand02_02]
25 71.020927 -0.000119 0.000060 0.000334 -0.002323 -106.342621 71.020927
26 71.020927 -0.000119 0.000060 0.000334 -0.002323 -106.379532 71.020927
[L_front_hand03_02]
25 71.020905 -0.000060 0.000060 0.000334 -0.002323 -106.342621 71.020905
26 71.020905 -0.000060 0.000060 0.000334 -0.002323 -106.379532 71.020905
[R_forearm]
25 322.776428 -0.000060 0.000030 0.211277 0.033155 -99.720093 322.776428
26 322.776428 -0.000060 0.000030 0.210192 0.034838 -100.201912 322.776428
[R_front_hand]
25 238.847015 -0.006795 2.210259 6.873375 -10.643771 -26.315668 238.857239
26 238.847015 -0.006795 2.210259 2.634048 -10.643227 -26.313593 238.857239
[R_weapon_bone]
25 155.664093 0.002503 -0.000030 0.003487 0.001180 -90.988930 155.664078
26 155.664093 0.002503 -0.000030 0.003487 0.001180 -90.988930 155.664078
[R_front_hand01_01]
25 87.624611 14.231146 22.918642 -154.633499 -59.950619 61.746044 91.683487
26 87.624611 14.231146 22.918642 -154.633484 -59.950619 61.746033 91.683487
[R_front_hand02_01]
25 89.356956 14.367283 -19.491137 154.602661 58.302849 63.744389 92.579636
26 89.356956 14.367283 -19.491137 154.602646 58.302849 63.744366 92.579636
[R_front_hand03_01]
25 87.286232 -22.307278 -0.143439 0.162155 -0.423168 -75.767921 90.091743
26 87.286232 -22.307278 -0.143439 0.162155 -0.423168 -75.767914 90.091743
[R_front_hand01_02]
25 71.020905 0.000060 0.000119 0.002323 -0.000334 106.381714 71.020905
26 71.020905 0.000060 0.000119 0.002323 -0.000334 106.381561 71.020905
[R_front_hand02_02]
25 71.020844 -0.000030 -0.000119 0.002323 -0.000334 106.381714 71.020836
26 71.020844 -0.000030 -0.000119 0.002323 -0.000334 106.381561 71.020836
[R_front_hand03_02]
25 71.020905 0.000000 0.000030 0.002323 -0.000334 106.381714 71.020905
26 71.020905 0.000000 0.000030 0.002323 -0.000334 106.381561 71.020905
[null_rope01_connect]
25 328.732483 0.000000 -0.000238 -147.787857 -51.191410 -177.737808 328.732483
26 328.732483 0.000000 -0.000238 -147.567810 -52.913017 -179.678055 328.732483
[Rope1_Seg01]
25 0.000038 -0.000365 0.000065 114.234398 -19.850840 152.831650 0.000373
26 0.000038 -0.000379 0.000062 115.868080 -23.776777 149.303421 0.000386
[Rope1_Seg02]
25 139.999863 -0.000179 0.000000 -0.042486 -9.743006 -12.672822 139.999863
26 139.999863 -0.000179 0.000000 -1.097490 -9.179419 -14.137558 139.999863
[Rope1_Seg03]
25 139.999924 0.000060 -0.000060 1.563667 -12.361486 -16.491278 139.999924
26 139.999924 0.000060 -0.000060 1.080254 -12.107199 -19.028852 139.999924
[Rope1_Seg04]
25 139.999924 -0.000060 -0.000119 2.407148 -10.890954 -14.952287 139.999924
26 139.999924 -0.000060 -0.000119 2.581865 -9.820221 -16.942501 139.999924
[Rope1_Seg05]
25 139.999832 0.000119 -0.000060 7.455571 -15.688310 -24.549772 139.999832
26 139.999832 0.000119 -0.000060 12.015100 -12.975386 -33.806000 139.999832
[Rope1_Seg06]
25 139.999954 0.000119 -0.000060 9.159221 -16.106134 -21.524456 139.999954
26 139.999954 0.000119 -0.000060 16.636209 -14.986084 -26.852314 139.999954
[Rope1_Seg07]
25 139.999985 0.000060 0.000000 4.363283 -9.468011 -9.756454 139.999985
26 139.999985 0.000060 0.000000 6.833652 -8.699612 -8.983249 139.999985
[Rope1_Seg09]
25 121.602913 0.000119 -0.000089 -89.793175 -1.359789 0.847147 121.602913
26 121.602913 0.000119 -0.000089 -89.793175 -1.359789 0.847147 121.602913
[L_mid_hand01]
25 103.859421 1.038730 8.195221 121.913727 -62.028774 -29.342213 104.187431
26 103.859421 1.038730 8.195221 124.908302 -64.325737 -32.698208 104.187431
[L_mid_hand02]
25 105.572853 -4.139662 -10.864139 -162.798126 41.730766 -64.459190 106.211075
26 105.572853 -4.139662 -10.864139 -165.192154 42.484787 -68.028900 106.211075
[L_mid_hand03]
25 104.641464 17.579376 -3.913581 -8.147992 16.962017 67.754333 106.179977
26 104.641464 17.579376 -3.913581 -7.308155 17.330339 70.609505 106.179977
[null_rope02_connect]
25 328.732849 0.000179 -0.000119 -117.638535 62.689743 38.151005 328.732849
26 328.732849 0.000179 -0.000119 -124.109444 60.104858 34.275391 328.732849
[Rope2_Seg01]
25 0.000060 0.000065 0.000000 -32.983509 -29.312214 16.239559 0.000089
26 0.000061 0.000062 0.000000 -37.287254 -25.795630 22.365211 0.000087
[Rope2_Seg02]
25 139.999741 -0.000060 -0.000119 -1.710799 -1.846992 8.377049 139.999756
26 139.999741 -0.000060 -0.000119 -1.278345 0.469401 6.830951 139.999756
[Rope2_Seg03]
25 140.000107 0.000030 0.000000 -2.322752 -9.310650 24.548946 140.000107
26 140.000107 0.000030 0.000000 -1.800809 -1.988316 17.499218 140.000107
[Rope2_Seg04]
25 139.999802 0.000000 -0.000060 10.917267 -12.149979 43.904247 139.999802
26 139.999802 0.000000 -0.000060 4.532526 0.460951 39.649635 139.999802
[Rope2_Seg05]
25 139.999985 -0.000060 0.000119 50.691872 80.701088 61.514824 139.999985
26 139.999985 -0.000060 0.000119 19.965080 75.067863 52.668999 139.999985
[Rope2_Seg06]
25 139.999893 -0.000030 -0.000119 -20.293888 23.291447 7.320387 139.999893
26 139.999893 -0.000030 -0.000119 -19.050262 13.469029 11.481769 139.999893
[Rope2_Seg07]
25 139.999893 0.000060 -0.000060 -7.145592 3.789171 3.325426 139.999893
26 139.999893 0.000060 -0.000060 -6.458955 2.406307 4.395600 139.999893
[Rope2_Seg09]
25 121.338966 0.000089 -0.000060 33.793236 -1.359788 -0.847141 121.338966
26 121.338966 0.000089 -0.000060 33.793236 -1.359788 -0.847141 121.338966
[R_mid_hand01]
25 104.680779 11.144459 -10.335981 -32.351292 36.833485 46.151878 105.778534
26 104.680779 11.144459 -10.335981 -29.839321 38.782555 50.244747 105.778534
[R_mid_hand02]
25 104.070427 2.443552 8.231699 67.067337 -50.463928 18.609619 104.424065
26 104.070427 2.443552 8.231699 65.096062 -53.911839 21.097576 104.424065
[R_mid_hand03]
25 106.028137 -11.221827 -5.996406 -171.852570 13.596703 -55.941753 106.788818
26 106.028137 -11.221827 -5.996406 -172.771393 14.103963 -59.790871 106.788818
[spine02]
25 129.756927 0.001550 0.000119 -0.489645 -4.029172 -0.946146 129.756927
26 129.756927 0.001550 0.000119 -0.440661 -4.035123 -1.634180 129.756927
[spine03]
25 78.613968 0.081613 -4.899009 1.383379 4.046127 9.022580 78.766502
26 78.613960 0.081605 -4.899010 1.412893 4.034843 9.450606 78.766495
[pelvis]
25 169.435242 0.051022 0.000000 -0.011527 -0.191337 -0.987493 169.435257
26 169.435242 0.051022 0.000000 -0.012939 -0.191241 -0.141743 169.435257
[null_rope03_connect]
25 -1.257226 -2.466202 137.391083 -157.616028 -85.765564 -129.797455 137.418976
26 -1.257226 -2.466202 137.391083 -135.543365 -88.653030 -153.775452 137.418976
[null_rope04_connect]
25 -1.259640 -2.480268 -137.844437 -157.616028 -85.765564 -129.797455 137.872513
26 -1.259640 -2.480268 -137.844437 -135.543365 -88.653030 -153.775452 137.872513
[Rope3_Seg01]
25 0.000033 -0.000365 0.000000 -145.003906 -22.133177 -37.188015 0.000367
26 0.000031 -0.000379 0.000000 -142.225311 -20.246140 -40.720581 0.000380
[Rope3_Seg02]
25 139.999924 -0.000119 0.000060 7.850375 -7.857351 3.079683 139.999924
26 139.999924 -0.000119 0.000060 8.354967 -9.594098 3.206390 139.999924
[Rope3_Seg03]
25 139.999924 -0.000119 0.000119 12.310209 -11.645239 6.256702 139.999924
26 139.999924 -0.000119 0.000119 11.737564 -12.474298 5.154148 139.999924
[Rope3_Seg04]
25 139.999924 0.000119 0.000000 16.338091 -16.367197 12.876915 139.999924
26 139.999924 0.000119 0.000000 14.409369 -14.744187 8.914143 139.999924
[Rope3_Seg05]
25 139.999924 -0.000238 0.000060 8.758991 -6.076650 23.522999 139.999924
26 139.999924 -0.000238 0.000060 8.120694 -2.810375 22.582657 139.999924
[Rope3_Seg06]
25 139.999893 -0.000119 -0.000060 2.204019 0.060249 11.130379 139.999893
26 139.999893 -0.000119 -0.000060 2.148588 1.503151 11.635548 139.999893
[Rope3_Seg07]
25 139.999771 0.000060 -0.000119 1.074799 -0.221990 5.887808 139.999771
26 139.999771 0.000060 -0.000119 1.026581 0.291590 5.773639 139.999771
[Rope3_Seg08]
25 139.999985 -0.000060 0.000000 0.727185 -0.063379 3.231282 139.999985
26 139.999985 -0.000060 0.000000 0.705422 0.219392 3.208308 139.999985
[Rope3_Seg09]
25 90.185997 -0.000179 -0.000060 89.793228 -1.359877 -0.847183 90.185997
26 90.185997 -0.000179 -0.000060 89.793228 -1.359877 -0.847183 90.185997
[R_rear_hand01]
25 103.366196 -6.073594 -10.757982 -169.183289 22.304338 -52.678299 104.101845
26 103.366196 -6.073594 -10.757982 -170.781693 22.979746 -56.828289 104.101845
[R_rear_hand02]
25 100.509819 12.039542 -7.992327 -25.326174 30.360598 49.900978 101.543350
26 100.509819 12.039542 -7.992327 -23.183119 31.959579 54.045364 101.543350
[R_rear_hand03]
25 101.539970 5.215704 5.435467 80.575394 -52.733402 11.389222 101.819031
26 101.539970 5.215704 5.435467 79.633026 -56.564861 12.543675 101.819031
[Rope4_Seg01]
25 -0.000010 -0.000332 -0.000065 69.011795 -26.362297 -146.263992 0.000339
26 -0.000010 -0.000348 -0.000062 60.465519 -18.567223 -144.574127 0.000353
[Rope4_Seg02]
25 139.999985 0.000060 0.000119 -11.779085 4.208023 -10.265800 139.999985
26 139.999985 0.000060 0.000119 -10.947221 4.102409 -10.077663 139.999985
[Rope4_Seg03]
25 139.999924 0.000000 -0.000238 -20.349770 11.503324 -17.965235 139.999924
26 139.999924 0.000000 -0.000238 -15.825759 8.374846 -14.481133 139.999924
[Rope4_Seg04]
25 139.999985 0.000000 0.000119 -19.068586 22.591148 -20.123739 139.999985
26 139.999985 0.000000 0.000119 -15.699342 9.592641 -16.239653 139.999985
[Rope4_Seg05]
25 139.999802 -0.000060 -0.000119 -6.242693 28.245798 -10.163198 139.999802
26 139.999802 -0.000060 -0.000119 -7.356342 29.099154 -4.556958 139.999802
[Rope4_Seg06]
25 139.999924 0.000000 0.000060 1.141139 18.451662 -4.002806 139.999924
26 139.999924 0.000000 0.000060 2.512027 31.362829 5.512526 139.999924
[Rope4_Seg07]
25 139.999802 0.000000 0.000000 1.960878 8.425590 -2.358767 139.999802
26 139.999802 0.000000 0.000000 2.571841 12.187017 0.544931 139.999802
[Rope4_Seg08]
25 139.999924 0.000000 0.000119 -0.143006 4.264441 -1.359741 139.999924
26 139.999924 0.000000 0.000119 0.218934 5.676724 -0.012237 139.999924
[Rope4_Seg09]
25 90.185791 0.000060 0.000060 -135.617828 2.228885 0.850567 90.185791
26 90.185791 0.000060 0.000060 -135.617828 2.228885 0.850567 90.185791
[L_rear_hand01]
25 101.696655 -8.392275 -7.654577 -17.798229 -35.006115 116.214783 102.329041
26 101.696655 -8.392275 -7.654577 -16.229382 -35.681812 113.503807 102.329041
[L_rear_hand02]
25 102.726799 -1.568258 5.773216 76.414986 65.052948 163.777969 102.900848
26 102.726799 -1.568258 5.773216 75.121269 67.292419 162.363388 102.900848
[L_rear_hand03]
25 104.552910 9.721220 -10.420293 -174.535919 -24.090160 -113.787468 105.519653
26 104.552910 9.721220 -10.420293 -175.569016 -24.291679 -111.264954 105.519653
